# xmcd
#
# Track frame offsets: 
#        150
#        33172
#        68625
#        93230
#        125077
#        153662
#        198400
#        236200
#        267302
#
# Disc length: 4178 seconds
#
# Revision: 2
# Processed by: cddbd v1.5.2PL0 Copyright (c) Steve Scherf et al.
# Submitted via: ExactAudioCopy v0.99pb4
#
DISCID=7b105009
DTITLE=Akira Miyazawa - Sea Hourse
DYEAR=1989
DGENRE=Jazz
TTITLE0=Green Dolphin Street
TTITLE1=In a Sentimental Mood
TTITLE2=Poor Butterfly
TTITLE3=Baby Sea Horse
TTITLE4=Stardust
TTITLE5=Tenor Madness
TTITLE6=I Can't Get Started
TTITLE7=Take the "A" Train
TTITLE8=If Ever I Would Leave You
EXTD=
EXTT0=
EXTT1=
EXTT2=
EXTT3=
EXTT4=
EXTT5=
EXTT6=
EXTT7=
EXTT8=
PLAYORDER=
